<?xml version="1.0"?><svg fill="#FFFFFF" xmlns="http://www.w3.org/2000/svg"  viewBox="0 0 100 100" width="70px" height="70px">    <path d="M 30.267578 17.921875 C 23.099578 17.921875 17.267578 23.753875 17.267578 30.921875 L 17.267578 69.921875 C 17.267578 77.089875 23.099578 82.921875 30.267578 82.921875 L 69.267578 82.921875 C 76.435578 82.921875 82.267578 77.089875 82.267578 69.921875 L 82.267578 30.921875 C 82.267578 23.753875 76.435578 17.921875 69.267578 17.921875 L 30.267578 17.921875 z M 30.267578 19.921875 L 69.267578 19.921875 C 75.332578 19.921875 80.267578 24.856875 80.267578 30.921875 L 80.267578 69.921875 C 80.267578 75.986875 75.332578 80.921875 69.267578 80.921875 L 30.267578 80.921875 C 24.202578 80.921875 19.267578 75.986875 19.267578 69.921875 L 19.267578 30.921875 C 19.267578 24.856875 24.202578 19.921875 30.267578 19.921875 z M 33.105469 22.921875 C 27.129469 22.921875 22.267578 27.781813 22.267578 33.757812 L 22.267578 67.083984 C 22.267578 73.059984 27.129469 77.921875 33.105469 77.921875 L 66.431641 77.921875 C 72.407641 77.921875 77.267578 73.059984 77.267578 67.083984 L 77.267578 48.421875 C 77.267578 48.145875 77.043578 47.921875 76.767578 47.921875 C 76.491578 47.921875 76.267578 48.145875 76.267578 48.421875 L 76.267578 67.083984 C 76.267578 72.507984 71.855641 76.921875 66.431641 76.921875 L 33.105469 76.921875 C 27.681469 76.921875 23.267578 72.507984 23.267578 67.083984 L 23.267578 33.757812 C 23.267578 28.333813 27.681469 23.921875 33.105469 23.921875 L 66.767578 23.921875 C 67.043578 23.921875 67.267578 23.697875 67.267578 23.421875 C 67.267578 23.145875 67.043578 22.921875 66.767578 22.921875 L 33.105469 22.921875 z M 76.767578 36.921875 C 76.491578 36.921875 76.267578 37.145875 76.267578 37.421875 L 76.267578 39.421875 C 76.267578 39.697875 76.491578 39.921875 76.767578 39.921875 C 77.043578 39.921875 77.267578 39.697875 77.267578 39.421875 L 77.267578 37.421875 C 77.267578 37.145875 77.043578 36.921875 76.767578 36.921875 z M 40.046875 37.152344 C 39.842875 37.152344 39.658031 37.276844 39.582031 37.464844 L 30.042969 61.085938 C 29.980969 61.239938 29.997797 61.414734 30.091797 61.552734 C 30.184797 61.690734 30.339859 61.773437 30.505859 61.773438 L 33.890625 61.773438 C 34.098625 61.773438 34.284422 61.643219 34.357422 61.449219 L 36.396484 56.0625 L 46.902344 56.0625 L 48.976562 61.453125 C 49.050562 61.646125 49.236359 61.773438 49.443359 61.773438 L 52.826172 61.773438 C 52.992172 61.773438 53.147234 61.690734 53.240234 61.552734 C 53.334234 61.414734 53.352016 61.240937 53.291016 61.085938 L 43.751953 37.464844 C 43.674953 37.276844 43.489156 37.152344 43.285156 37.152344 L 40.046875 37.152344 z M 40.382812 38.152344 L 42.949219 38.152344 L 52.085938 60.773438 L 49.785156 60.773438 L 47.712891 55.382812 C 47.638891 55.189813 47.453094 55.0625 47.246094 55.0625 L 36.050781 55.0625 C 35.842781 55.0625 35.655031 55.190766 35.582031 55.384766 L 33.544922 60.773438 L 31.246094 60.773438 L 40.382812 38.152344 z M 41.666016 40.162109 C 41.468141 40.162109 41.269766 40.259125 41.197266 40.453125 L 36.589844 52.761719 C 36.531844 52.915719 36.553484 53.087656 36.646484 53.222656 C 36.740484 53.357656 36.894594 53.4375 37.058594 53.4375 L 46.275391 53.4375 C 46.439391 53.4375 46.591547 53.357656 46.685547 53.222656 C 46.778547 53.087656 46.799187 52.915719 46.742188 52.761719 L 42.134766 40.453125 C 42.061766 40.259125 41.863891 40.162109 41.666016 40.162109 z M 76.767578 40.921875 C 76.491578 40.921875 76.267578 41.145875 76.267578 41.421875 L 76.267578 45.421875 C 76.267578 45.697875 76.491578 45.921875 76.767578 45.921875 C 77.043578 45.921875 77.267578 45.697875 77.267578 45.421875 L 77.267578 41.421875 C 77.267578 41.145875 77.043578 40.921875 76.767578 40.921875 z M 41.666016 42.056641 L 45.554688 52.4375 L 37.777344 52.4375 L 41.666016 42.056641 z M 62.833984 43.394531 C 61.542984 43.394531 60.357547 43.641859 59.310547 44.130859 C 58.265547 44.620859 57.365719 45.311687 56.636719 46.179688 C 55.914719 47.039687 55.358469 48.056219 54.980469 49.199219 C 54.605469 50.331219 54.414062 51.553031 54.414062 52.832031 C 54.414062 54.108031 54.598938 55.317734 54.960938 56.427734 C 55.328938 57.551734 55.889953 58.546719 56.626953 59.386719 C 57.366953 60.230719 58.316219 60.908484 59.449219 61.396484 C 60.574219 61.882484 61.908156 62.128906 63.410156 62.128906 C 64.517156 62.128906 65.60825 62.024406 66.65625 61.816406 C 67.70825 61.610406 68.648172 61.317266 69.451172 60.947266 C 69.658172 60.851266 69.774375 60.628297 69.734375 60.404297 L 69.302734 58.027344 C 69.275734 57.879344 69.183781 57.750734 69.050781 57.677734 C 68.918781 57.604734 68.759094 57.596344 68.621094 57.652344 C 67.952094 57.924344 67.209109 58.155891 66.412109 58.337891 C 65.624109 58.517891 64.771906 58.609375 63.878906 58.609375 C 62.931906 58.609375 62.123562 58.488 61.476562 58.25 C 60.847563 58.02 60.330359 57.688625 59.943359 57.265625 C 59.551359 56.837625 59.2565 56.321516 59.0625 55.728516 C 58.9075 55.251516 58.802906 54.721438 58.753906 54.148438 L 69.134766 54.148438 C 69.363766 54.148438 69.562188 53.993484 69.617188 53.771484 C 69.866187 52.789484 69.992188 51.781391 69.992188 50.775391 C 69.992188 49.757391 69.845688 48.79325 69.554688 47.90625 C 69.257688 47.00425 68.7975 46.208969 68.1875 45.542969 C 67.5775 44.876969 66.818688 44.34775 65.929688 43.96875 C 65.043688 43.58575 64.001984 43.394531 62.833984 43.394531 z M 62.835938 44.394531 C 63.866937 44.394531 64.776109 44.559719 65.537109 44.886719 C 66.295109 45.209719 66.938172 45.65875 67.451172 46.21875 C 67.963172 46.77875 68.353469 47.450797 68.605469 48.216797 C 68.863469 49.001797 68.994141 49.862438 68.994141 50.773438 C 68.994141 51.568438 68.908281 52.364484 68.738281 53.146484 L 58.226562 53.146484 C 58.091563 53.146484 57.960187 53.202828 57.867188 53.298828 C 57.772188 53.395828 57.722563 53.526156 57.726562 53.660156 C 57.750563 54.529156 57.880328 55.329109 58.111328 56.037109 C 58.349328 56.766109 58.718031 57.406453 59.207031 57.939453 C 59.704031 58.481453 60.352813 58.9015 61.132812 59.1875 C 61.890813 59.4665 62.813906 59.607422 63.878906 59.607422 C 64.847906 59.607422 65.775719 59.507547 66.636719 59.310547 C 67.266719 59.166547 67.864781 58.996875 68.425781 58.796875 L 68.679688 60.191406 C 68.029687 60.457406 67.286844 60.672938 66.464844 60.835938 C 65.480844 61.028937 64.452156 61.126953 63.410156 61.126953 C 62.045156 61.126953 60.846656 60.907562 59.847656 60.476562 C 58.851656 60.046563 58.020906 59.458562 57.378906 58.726562 C 56.730906 57.989562 56.236109 57.111188 55.912109 56.117188 C 55.582109 55.108187 55.414063 54.003031 55.414062 52.832031 C 55.414062 51.660031 55.587688 50.543672 55.929688 49.513672 C 56.267688 48.491672 56.764297 47.585266 57.404297 46.822266 C 58.039297 46.066266 58.823375 45.467063 59.734375 45.039062 C 60.647375 44.612063 61.691937 44.394531 62.835938 44.394531 z M 62.759766 45.771484 C 62.020891 45.768859 61.272469 45.912938 60.667969 46.210938 C 60.080969 46.500937 59.567578 46.899437 59.142578 47.398438 C 58.720578 47.891438 58.387344 48.475812 58.152344 49.132812 C 57.922344 49.775813 57.778562 50.459062 57.726562 51.164062 C 57.716563 51.303063 57.764375 51.439016 57.859375 51.541016 C 57.954375 51.643016 58.088563 51.699219 58.226562 51.699219 L 66.361328 51.699219 C 66.616328 51.699219 66.832375 51.508859 66.859375 51.255859 C 66.935375 50.554859 66.922313 49.870609 66.820312 49.224609 C 66.714313 48.554609 66.494875 47.958125 66.171875 47.453125 C 65.837875 46.932125 65.373969 46.515844 64.792969 46.214844 C 64.228969 45.923344 63.498641 45.774109 62.759766 45.771484 z M 62.751953 46.773438 C 63.335828 46.774812 63.908531 46.887469 64.332031 47.105469 C 64.760031 47.326469 65.087125 47.617141 65.328125 47.994141 C 65.577125 48.383141 65.746078 48.847859 65.830078 49.380859 C 65.897078 49.803859 65.920437 50.246172 65.898438 50.701172 L 58.783203 50.701172 C 58.846203 50.276172 58.95175 49.865656 59.09375 49.472656 C 59.28775 48.929656 59.560344 48.451781 59.902344 48.050781 C 60.240344 47.654781 60.646328 47.338375 61.111328 47.109375 C 61.574328 46.881875 62.168078 46.772063 62.751953 46.773438 z"/></svg>