<svg fill="#FFFFFF" xmlns="http://www.w3.org/2000/svg"  viewBox="0 0 64 64" width="64px" height="64px"><path d="M 9 6 C 7.347656 6 6 7.347656 6 9 L 6 55 C 6 56.652344 7.347656 58 9 58 L 55 58 C 56.652344 58 58 56.652344 58 55 L 58 9 C 58 7.347656 56.652344 6 55 6 Z M 9 8 L 55 8 C 55.550781 8 56 8.449219 56 9 L 56 55 C 56 55.550781 55.550781 56 55 56 L 9 56 C 8.449219 56 8 55.550781 8 55 L 8 9 C 8 8.449219 8.449219 8 9 8 Z M 14 12 C 12.898438 12 12 12.898438 12 14 L 12 50 C 12 51.101563 12.898438 52 14 52 L 17 52 C 17.550781 52 18 51.554688 18 51 C 18 50.445313 17.550781 50 17 50 L 14 50 L 14 14 L 50 14 L 50 50 L 47 50 C 46.449219 50 46 50.445313 46 51 C 46 51.554688 46.449219 52 47 52 L 50 52 C 51.101563 52 52 51.101563 52 50 L 52 14 C 52 12.898438 51.101563 12 50 12 Z M 23 22 C 22.449219 22 22 22.445313 22 23 L 22 41 C 22 41.554688 22.449219 42 23 42 C 23.550781 42 24 41.554688 24 41 L 24 34 L 27 34 C 29.757813 34 32 31.757813 32 29 L 32 27 C 32 24.242188 29.757813 22 27 22 Z M 24 24 L 27 24 C 28.652344 24 30 25.347656 30 27 L 30 29 C 30 30.652344 28.652344 32 27 32 L 24 32 Z M 37.839844 28 C 35.722656 28 34 29.722656 34 31.839844 C 34 33.5625 35.097656 35.085938 36.734375 35.632813 L 38.632813 36.265625 C 39.449219 36.539063 40 37.300781 40 38.160156 C 40 39.175781 39.175781 40 38.160156 40 L 37.839844 40 C 37.28125 40 36.761719 39.753906 36.410156 39.324219 C 36.0625 38.894531 35.433594 38.832031 35.003906 39.175781 C 34.578125 39.527344 34.511719 40.15625 34.859375 40.585938 C 35.59375 41.484375 36.679688 42 37.839844 42 L 38.160156 42 C 40.277344 42 42 40.277344 42 38.160156 C 42 36.4375 40.902344 34.914063 39.265625 34.367188 L 37.367188 33.734375 C 36.550781 33.460938 36 32.699219 36 31.839844 C 36 30.824219 36.824219 30 37.839844 30 L 38.160156 30 C 38.722656 30 39.246094 30.25 39.597656 30.6875 C 39.941406 31.121094 40.570313 31.191406 41.003906 30.84375 C 41.433594 30.5 41.503906 29.871094 41.160156 29.4375 C 40.425781 28.523438 39.335938 28 38.160156 28 Z M 22 48 C 21.449219 48 21 48.445313 21 49 L 21 51 C 21 51.554688 21.449219 52 22 52 C 22.550781 52 23 51.554688 23 51 L 23 49 C 23 48.445313 22.550781 48 22 48 Z M 27 48 C 26.449219 48 26 48.445313 26 49 L 26 51 C 26 51.554688 26.449219 52 27 52 C 27.550781 52 28 51.554688 28 51 L 28 49 C 28 48.445313 27.550781 48 27 48 Z M 32 48 C 31.449219 48 31 48.445313 31 49 L 31 51 C 31 51.554688 31.449219 52 32 52 C 32.550781 52 33 51.554688 33 51 L 33 49 C 33 48.445313 32.550781 48 32 48 Z M 37 48 C 36.449219 48 36 48.445313 36 49 L 36 51 C 36 51.554688 36.449219 52 37 52 C 37.550781 52 38 51.554688 38 51 L 38 49 C 38 48.445313 37.550781 48 37 48 Z M 42 48 C 41.449219 48 41 48.445313 41 49 L 41 51 C 41 51.554688 41.449219 52 42 52 C 42.550781 52 43 51.554688 43 51 L 43 49 C 43 48.445313 42.550781 48 42 48 Z"/></svg>