<svg fill="#FFFFFF" xmlns="http://www.w3.org/2000/svg"  viewBox="0 0 64 64" width="64px" height="64px"><path d="M 9 6 C 7.347656 6 6 7.347656 6 9 L 6 55 C 6 56.652344 7.347656 58 9 58 L 55 58 C 56.652344 58 58 56.652344 58 55 L 58 9 C 58 7.347656 56.652344 6 55 6 Z M 9 8 L 55 8 C 55.550781 8 56 8.449219 56 9 L 56 55 C 56 55.550781 55.550781 56 55 56 L 9 56 C 8.449219 56 8 55.550781 8 55 L 8 9 C 8 8.449219 8.449219 8 9 8 Z M 14 12 C 12.898438 12 12 12.898438 12 14 L 12 50 C 12 51.101563 12.898438 52 14 52 L 17 52 C 17.550781 52 18 51.550781 18 51 C 18 50.449219 17.550781 50 17 50 L 14 50 L 14 14 L 50 14 L 50 50 L 47 50 C 46.449219 50 46 50.449219 46 51 C 46 51.550781 46.449219 52 47 52 L 50 52 C 51.101563 52 52 51.101563 52 50 L 52 14 C 52 12.898438 51.101563 12 50 12 Z M 28.402344 22 C 27.960938 22 27.570313 22.289063 27.441406 22.714844 L 22.042969 40.714844 C 21.882813 41.242188 22.183594 41.796875 22.714844 41.957031 C 23.242188 42.117188 23.796875 41.816406 23.957031 41.285156 L 25.546875 36 L 31.253906 36 L 32.84375 41.285156 C 32.972656 41.722656 33.367188 42 33.796875 42 C 33.894531 42 33.992188 41.984375 34.089844 41.957031 C 34.617188 41.796875 34.917969 41.242188 34.757813 40.714844 L 29.359375 22.714844 C 29.230469 22.289063 28.839844 22 28.402344 22 Z M 39 23.5 C 38.171875 23.5 37.5 24.171875 37.5 25 C 37.5 25.828125 38.171875 26.5 39 26.5 C 39.828125 26.5 40.5 25.828125 40.5 25 C 40.5 24.171875 39.828125 23.5 39 23.5 Z M 28.402344 26.480469 L 30.65625 34 L 26.144531 34 Z M 39 29 C 38.449219 29 38 29.449219 38 30 L 38 41 C 38 41.550781 38.449219 42 39 42 C 39.550781 42 40 41.550781 40 41 L 40 30 C 40 29.449219 39.550781 29 39 29 Z M 22 48 C 21.449219 48 21 48.449219 21 49 L 21 51 C 21 51.550781 21.449219 52 22 52 C 22.550781 52 23 51.550781 23 51 L 23 49 C 23 48.449219 22.550781 48 22 48 Z M 27 48 C 26.449219 48 26 48.449219 26 49 L 26 51 C 26 51.550781 26.449219 52 27 52 C 27.550781 52 28 51.550781 28 51 L 28 49 C 28 48.449219 27.550781 48 27 48 Z M 32 48 C 31.449219 48 31 48.449219 31 49 L 31 51 C 31 51.550781 31.449219 52 32 52 C 32.550781 52 33 51.550781 33 51 L 33 49 C 33 48.449219 32.550781 48 32 48 Z M 37 48 C 36.449219 48 36 48.449219 36 49 L 36 51 C 36 51.550781 36.449219 52 37 52 C 37.550781 52 38 51.550781 38 51 L 38 49 C 38 48.449219 37.550781 48 37 48 Z M 42 48 C 41.449219 48 41 48.449219 41 49 L 41 51 C 41 51.550781 41.449219 52 42 52 C 42.550781 52 43 51.550781 43 51 L 43 49 C 43 48.449219 42.550781 48 42 48 Z"/></svg>